<?xml version="1.0" standalone="no"?>
<!DOCTYPE svg PUBLIC "-//W3C//DTD SVG 20010904//EN"
 "http://www.w3.org/TR/2001/REC-SVG-20010904/DTD/svg10.dtd">
<svg version="1.0" xmlns="http://www.w3.org/2000/svg"
 width="512.000000pt" height="512.000000pt" viewBox="0 0 512.000000 512.000000"
 preserveAspectRatio="xMidYMid meet">
<metadata>
Created by potrace 1.14, written by Peter Selinger 2001-2017
</metadata>
<g transform="translate(0.000000,512.000000) scale(0.100000,-0.100000)"
fill="#000000" stroke="none">
<path d="M317 4799 l-317 -319 480 -640 480 -640 311 0 311 0 532 -532 532
-533 -22 -56 c-38 -93 -53 -184 -49 -299 2 -58 5 -112 7 -120 31 -121 67 -201
129 -290 21 -30 321 -337 666 -681 704 -702 674 -678 822 -685 78 -4 138 9
202 41 19 10 171 154 339 321 317 315 348 353 369 451 9 44 8 141 -2 182 -22
85 -50 116 -666 734 -339 340 -643 639 -676 664 -128 97 -260 143 -425 148
-96 3 -130 0 -206 -20 -51 -13 -104 -30 -120 -38 l-27 -14 -534 533 -533 533
0 311 0 310 -617 463 c-340 255 -629 470 -643 479 -25 15 -25 15 -343 -303z"/>
<path d="M3548 5115 c-1 -1 -26 -5 -55 -9 -447 -53 -863 -340 -1080 -746 -33
-60 -99 -224 -107 -261 -3 -13 -10 -40 -15 -59 -6 -19 -14 -55 -17 -80 -3 -25
-8 -48 -10 -52 -3 -4 -7 -60 -11 -125 l-6 -119 413 -412 c339 -339 416 -411
433 -407 76 18 137 23 252 21 72 -2 137 -6 145 -9 8 -3 29 -8 45 -11 129 -22
320 -109 425 -193 19 -15 95 -86 168 -157 l132 -130 68 33 c90 44 152 83 248
157 79 61 220 203 252 253 9 14 19 28 22 31 4 3 27 39 53 80 110 178 181 382
206 590 9 78 7 322 -3 375 -29 144 -38 173 -64 197 -36 34 -81 43 -123 25 -20
-9 -185 -167 -408 -390 l-375 -376 -40 4 c-23 3 -63 9 -91 14 -27 6 -66 13
-85 15 -19 3 -46 8 -60 10 -14 3 -110 19 -215 36 -104 18 -191 33 -192 34 -1
1 -9 44 -23 136 -7 46 -37 226 -55 333 -6 34 -14 83 -20 120 -3 15 -7 41 -10
57 -5 29 15 51 376 413 210 210 386 393 391 406 14 38 0 95 -30 124 -31 29
-71 42 -207 63 -35 6 -322 14 -327 9z"/>
<path d="M909 1813 c-855 -858 -829 -828 -880 -985 -27 -80 -33 -236 -13 -328
23 -111 86 -224 173 -310 123 -122 257 -180 426 -186 124 -4 200 12 315 68
l85 40 657 655 656 655 -18 53 c-10 29 -23 77 -29 106 -6 30 -14 65 -17 79
-16 73 -10 304 11 369 4 13 -64 87 -276 299 -155 155 -285 282 -288 282 -4 0
-364 -359 -802 -797z m-193 -948 c69 -20 130 -82 150 -153 55 -190 -111 -356
-300 -300 -60 18 -139 100 -154 160 -27 106 5 201 87 260 66 47 134 58 217 33z"/>
</g>
</svg>
